<svg width="29" height="29" viewBox="0 0 29 29" fill="none" xmlns="http://www.w3.org/2000/svg">
<path d="M9.0625 14.5C9.0625 14.9807 8.87154 15.4417 8.53163 15.7816C8.19172 16.1215 7.73071 16.3125 7.25 16.3125C6.7693 16.3125 6.30828 16.1215 5.96837 15.7816C5.62846 15.4417 5.4375 14.9807 5.4375 14.5C5.4375 14.0193 5.62846 13.5583 5.96837 13.2184C6.30828 12.8785 6.7693 12.6875 7.25 12.6875C7.73071 12.6875 8.19172 12.8785 8.53163 13.2184C8.87154 13.5583 9.0625 14.0193 9.0625 14.5ZM16.3125 14.5C16.3125 14.9807 16.1215 15.4417 15.7816 15.7816C15.4417 16.1215 14.9807 16.3125 14.5 16.3125C14.0193 16.3125 13.5583 16.1215 13.2184 15.7816C12.8785 15.4417 12.6875 14.9807 12.6875 14.5C12.6875 14.0193 12.8785 13.5583 13.2184 13.2184C13.5583 12.8785 14.0193 12.6875 14.5 12.6875C14.9807 12.6875 15.4417 12.8785 15.7816 13.2184C16.1215 13.5583 16.3125 14.0193 16.3125 14.5ZM21.75 16.3125C22.2307 16.3125 22.6917 16.1215 23.0316 15.7816C23.3715 15.4417 23.5625 14.9807 23.5625 14.5C23.5625 14.0193 23.3715 13.5583 23.0316 13.2184C22.6917 12.8785 22.2307 12.6875 21.75 12.6875C21.2693 12.6875 20.8083 12.8785 20.4684 13.2184C20.1285 13.5583 19.9375 14.0193 19.9375 14.5C19.9375 14.9807 20.1285 15.4417 20.4684 15.7816C20.8083 16.1215 21.2693 16.3125 21.75 16.3125Z" fill="white"/>
<path d="M3.92406 28.6429L3.96031 28.6357C7.27719 27.9777 9.30356 27.1096 10.2461 26.6329C11.6337 27.003 13.0639 27.1894 14.5 27.1875C22.5076 27.1875 29 21.5071 29 14.5C29 7.49288 22.5076 1.8125 14.5 1.8125C6.49237 1.8125 0 7.49288 0 14.5C0 17.69 1.34669 20.6081 3.57063 22.8375C3.41504 24.2696 3.09639 25.6791 2.62087 27.0389L2.61544 27.0588C2.4803 27.4483 2.33281 27.8333 2.17319 28.2134C2.03 28.5505 2.30731 28.9275 2.668 28.8695C3.08789 28.8008 3.50663 28.7253 3.92406 28.6429ZM5.37406 23.0097C5.39945 22.7443 5.366 22.4766 5.27608 22.2257C5.18617 21.9748 5.04201 21.7467 4.85388 21.5579C2.93263 19.6294 1.8125 17.1608 1.8125 14.5C1.8125 8.7145 7.25725 3.625 14.5 3.625C21.7428 3.625 27.1875 8.7145 27.1875 14.5C27.1875 20.2873 21.7428 25.375 14.5 25.375C13.2224 25.3769 11.95 25.2111 10.7155 24.882C10.2841 24.7664 9.82518 24.8142 9.42681 25.0161C8.72538 25.3714 7.17931 26.0492 4.65269 26.6347C5.00518 25.4514 5.24668 24.2378 5.37406 23.0097Z" fill="white"/>
</svg>
