<svg width="29" height="29" viewBox="0 0 29 29" fill="none" xmlns="http://www.w3.org/2000/svg">
<path d="M14.5 27.1875C11.1351 27.1875 7.90795 25.8508 5.52858 23.4714C3.14921 21.092 1.8125 17.8649 1.8125 14.5C1.8125 11.1351 3.14921 7.90795 5.52858 5.52858C7.90795 3.14921 11.1351 1.8125 14.5 1.8125C17.8649 1.8125 21.092 3.14921 23.4714 5.52858C25.8508 7.90795 27.1875 11.1351 27.1875 14.5C27.1875 17.8649 25.8508 21.092 23.4714 23.4714C21.092 25.8508 17.8649 27.1875 14.5 27.1875ZM14.5 29C18.3456 29 22.0338 27.4723 24.753 24.753C27.4723 22.0338 29 18.3456 29 14.5C29 10.6544 27.4723 6.96623 24.753 4.24695C22.0338 1.52767 18.3456 0 14.5 0C10.6544 0 6.96623 1.52767 4.24695 4.24695C1.52767 6.96623 0 10.6544 0 14.5C0 18.3456 1.52767 22.0338 4.24695 24.753C6.96623 27.4723 10.6544 29 14.5 29Z" fill="white"/>
<path d="M16.1855 11.9407L12.0349 12.4609L11.8863 13.1497L12.7019 13.3001C13.2348 13.427 13.3399 13.6191 13.2239 14.1502L11.8863 20.4359C11.5347 22.0617 12.0766 22.8266 13.3508 22.8266C14.3386 22.8266 15.4859 22.3699 16.0061 21.7427L16.1656 20.9887C15.8031 21.3077 15.2739 21.4346 14.9222 21.4346C14.4238 21.4346 14.2425 21.0848 14.3712 20.4686L16.1855 11.9407ZM16.3124 8.15625C16.3124 8.63695 16.1215 9.09797 15.7815 9.43788C15.4416 9.77779 14.9806 9.96875 14.4999 9.96875C14.0192 9.96875 13.5582 9.77779 13.2183 9.43788C12.8784 9.09797 12.6874 8.63695 12.6874 8.15625C12.6874 7.67554 12.8784 7.21453 13.2183 6.87462C13.5582 6.53471 14.0192 6.34375 14.4999 6.34375C14.9806 6.34375 15.4416 6.53471 15.7815 6.87462C16.1215 7.21453 16.3124 7.67554 16.3124 8.15625Z" fill="white"/>
</svg>
