<svg width="276" height="184" viewBox="0 0 276 184" fill="none" xmlns="http://www.w3.org/2000/svg">
<path d="M0 5C0 2.23858 2.23858 0 5 0H271C273.761 0 276 2.23858 276 5V179C276 181.761 273.761 184 271 184H5C2.23858 184 0 181.761 0 179V5Z" fill="#6504B5"/>
<path d="M106.562 95.9999C112.258 95.9999 116.875 91.7093 116.875 86.4166C116.875 81.1239 112.258 76.8333 106.562 76.8333C100.867 76.8333 96.25 81.1239 96.25 86.4166C96.25 91.7093 100.867 95.9999 106.562 95.9999Z" fill="white"/>
<path d="M125.125 80.6667C130.82 80.6667 135.437 76.3761 135.437 71.0833C135.437 65.7906 130.82 61.5 125.125 61.5C119.43 61.5 114.812 65.7906 114.812 71.0833C114.812 76.3761 119.43 80.6667 125.125 80.6667Z" fill="white"/>
<path d="M149.875 80.6667C155.57 80.6667 160.188 76.3761 160.188 71.0833C160.188 65.7906 155.57 61.5 149.875 61.5C144.18 61.5 139.562 65.7906 139.562 71.0833C139.562 76.3761 144.18 80.6667 149.875 80.6667Z" fill="white"/>
<path d="M168.438 95.9999C174.133 95.9999 178.75 91.7093 178.75 86.4166C178.75 81.1239 174.133 76.8333 168.438 76.8333C162.742 76.8333 158.125 81.1239 158.125 86.4166C158.125 91.7093 162.742 95.9999 168.438 95.9999Z" fill="white"/>
<path d="M159.527 106.963C155.938 103.053 152.927 99.7183 149.297 95.8083C147.4 93.7383 144.966 91.6683 142.078 90.7483C141.625 90.595 141.171 90.48 140.717 90.4033C139.686 90.25 138.572 90.25 137.5 90.25C136.427 90.25 135.313 90.25 134.241 90.4417C133.787 90.5183 133.333 90.6333 132.88 90.7867C129.992 91.7067 127.6 93.7767 125.661 95.8467C122.072 99.7567 119.061 103.092 115.431 107.002C110.027 112.023 103.386 117.582 104.623 125.363C105.82 129.273 108.831 133.145 114.235 134.257C117.246 134.832 126.857 132.57 137.087 132.57H137.83C148.06 132.57 157.671 134.793 160.682 134.257C166.086 133.145 169.097 129.235 170.293 125.363C171.572 117.543 164.931 111.985 159.527 106.963V106.963Z" fill="white"/>
</svg>
