<svg width="55" height="58" viewBox="0 0 55 58" fill="none" xmlns="http://www.w3.org/2000/svg">
<g clip-path="url(#clip0)">
<path d="M27.5 5.04346C23.75 5.04346 20.8203 6.43567 18.7109 9.22009C16.6016 12.0045 15.5469 15.5638 15.5469 19.8981C15.5208 25.283 17.2396 29.5516 20.7031 32.7038C21.1458 33.1241 21.3021 33.6626 21.1719 34.3193L20.2734 36.2106C19.987 36.841 19.5638 37.3335 19.0039 37.6882C18.444 38.0428 17.2656 38.5484 15.4688 39.2051C15.3906 39.2314 13.7435 39.7699 10.5273 40.8206C7.3112 41.8714 5.59896 42.4493 5.39062 42.5543C3.20312 43.4737 1.77083 44.4325 1.09375 45.4307C0.364583 47.0856 0 51.2753 0 58H55C55 51.2753 54.6354 47.0856 53.9062 45.4307C53.2292 44.4325 51.7969 43.4737 49.6094 42.5543C49.401 42.4493 47.6888 41.8714 44.4727 40.8206C41.2565 39.7699 39.6094 39.2314 39.5312 39.2051C37.7344 38.5484 36.556 38.0428 35.9961 37.6882C35.4362 37.3335 35.013 36.841 34.7266 36.2106L33.8281 34.3193C33.6979 33.6626 33.8542 33.1241 34.2969 32.7038C37.7604 29.5516 39.4792 25.283 39.4531 19.8981C39.4531 15.5638 38.3984 12.0045 36.2891 9.22009C34.1797 6.43567 31.25 5.04346 27.5 5.04346Z" fill="#6504B5"/>
</g>
<defs>
<clipPath id="clip0">
<rect width="55" height="58" fill="white"/>
</clipPath>
</defs>
</svg>
