<svg width="34" height="35" viewBox="0 0 34 35" fill="none" xmlns="http://www.w3.org/2000/svg">
<path d="M29.7903 27.4578C28.9706 26.6353 28.1729 25.7892 27.398 24.9205C26.747 24.2275 26.355 23.7233 26.355 23.7233L21.455 21.2722C23.4167 18.9413 24.4994 15.9408 24.5 12.8333C24.5 5.7585 19.005 0 12.25 0C5.495 0 0 5.7585 0 12.8333C0 19.9082 5.495 25.6667 12.25 25.6667C15.3352 25.6667 18.1475 24.4567 20.3053 22.4785L22.645 27.6118C22.645 27.6118 23.1263 28.0225 23.7878 28.7045C24.465 29.37 25.3557 30.2702 26.2097 31.2107L28.5862 33.7627L29.6432 34.947L33.355 31.0585L32.2245 29.9512C31.5612 29.2692 30.6758 28.3635 29.7903 27.4578ZM12.25 22C7.42525 22 3.5 17.8878 3.5 12.8333C3.5 7.77883 7.42525 3.66667 12.25 3.66667C17.0747 3.66667 21 7.77883 21 12.8333C21 17.8878 17.0747 22 12.25 22Z" fill="#6504B5"/>
</svg>
