<svg width="37" height="29" viewBox="0 0 37 29" fill="none" xmlns="http://www.w3.org/2000/svg">
<path d="M35.6786 1.50657e-06H26.2304C24.2028 1.50657e-06 22.2206 0.581983 20.5152 1.6799L18.5 2.97182L16.4848 1.6799C14.781 0.582193 12.7967 -0.00108191 10.7696 1.50657e-06H1.32143C0.590513 1.50657e-06 0 0.590238 0 1.32081V24.7652C0 25.4957 0.590513 26.086 1.32143 26.086H10.7696C12.7972 26.086 14.7794 26.668 16.4848 27.7659L18.3183 28.9463C18.372 28.9794 18.4339 29 18.4959 29C18.5578 29 18.6198 28.9835 18.6734 28.9463L20.5069 27.7659C22.2165 26.668 24.2028 26.086 26.2304 26.086H35.6786C36.4095 26.086 37 25.4957 37 24.7652V1.32081C37 0.590238 36.4095 1.50657e-06 35.6786 1.50657e-06ZM10.7696 23.1141H2.97321V2.97182H10.7696C12.2315 2.97182 13.652 3.3887 14.8785 4.17706L16.8936 5.46897L17.1786 5.65471V24.7239C15.2129 23.6672 13.0161 23.1141 10.7696 23.1141ZM34.0268 23.1141H26.2304C23.9839 23.1141 21.7871 23.6672 19.8214 24.7239V5.65471L20.1064 5.46897L22.1215 4.17706C23.348 3.3887 24.7685 2.97182 26.2304 2.97182H34.0268V23.1141ZM13.747 8.25505H6.07444C5.91339 8.25505 5.78125 8.39539 5.78125 8.56462V10.422C5.78125 10.5912 5.91339 10.7316 6.07444 10.7316H13.7429C13.9039 10.7316 14.036 10.5912 14.036 10.422V8.56462C14.0402 8.39539 13.908 8.25505 13.747 8.25505ZM22.9598 8.56462V10.422C22.9598 10.5912 23.092 10.7316 23.253 10.7316H30.9214C31.0825 10.7316 31.2146 10.5912 31.2146 10.422V8.56462C31.2146 8.39539 31.0825 8.25505 30.9214 8.25505H23.253C23.092 8.25505 22.9598 8.39539 22.9598 8.56462ZM13.747 14.0336H6.07444C5.91339 14.0336 5.78125 14.1739 5.78125 14.3432V16.2005C5.78125 16.3698 5.91339 16.5101 6.07444 16.5101H13.7429C13.9039 16.5101 14.036 16.3698 14.036 16.2005V14.3432C14.0402 14.1739 13.908 14.0336 13.747 14.0336ZM30.9256 14.0336H23.253C23.092 14.0336 22.9598 14.1739 22.9598 14.3432V16.2005C22.9598 16.3698 23.092 16.5101 23.253 16.5101H30.9214C31.0825 16.5101 31.2146 16.3698 31.2146 16.2005V14.3432C31.2188 14.1739 31.0866 14.0336 30.9256 14.0336Z" fill="white"/>
</svg>
