<svg width="37" height="29" viewBox="0 0 37 29" fill="none" xmlns="http://www.w3.org/2000/svg">
<path d="M19.2548 0.238107C19.036 0.0838002 18.7664 0 18.4889 0C18.2114 0 17.9418 0.0838002 17.723 0.238107L0 12.7362L1.53303 14.4897L3.7 12.9616V26.7692C3.7013 27.3605 3.9616 27.9272 4.42391 28.3453C4.88622 28.7634 5.51287 28.9988 6.16667 29H30.8333C31.4871 28.9988 32.1138 28.7634 32.5761 28.3453C33.0384 27.9272 33.2987 27.3605 33.3 26.7692V12.9716L35.467 14.4997L37 12.7463L19.2548 0.238107ZM20.9667 26.7692H16.0333V17.8459H20.9667V26.7692ZM23.4333 26.7692V17.8459C23.4327 17.2545 23.1726 16.6874 22.7101 16.2692C22.2477 15.8509 21.6207 15.6157 20.9667 15.6151H16.0333C15.3793 15.6157 14.7523 15.8509 14.2899 16.2692C13.8274 16.6874 13.5673 17.2545 13.5667 17.8459V26.7692H6.16667V11.2226L18.5 2.53361L30.8333 11.2338V26.7692H23.4333Z" fill="white"/>
</svg>
